<?xml version="1.0" encoding="UTF-8" standalone="no"?><!DOCTYPE svg PUBLIC "-//W3C//DTD SVG 1.1//EN" "http://www.w3.org/Graphics/SVG/1.1/DTD/svg11.dtd"><svg width="100%" height="100%" viewBox="0 0 588 589" version="1.1" xmlns="http://www.w3.org/2000/svg" xmlns:xlink="http://www.w3.org/1999/xlink" xml:space="preserve" xmlns:serif="http://www.serif.com/" style="fill-rule:evenodd;clip-rule:evenodd;stroke-linejoin:round;stroke-miterlimit:2;"><g><path d="M90,1.4c23.4,-1.6 391,-2.2 406.7,0.4c1.8,0.4 3.5,0.8 5.3,1.2c1.6,0.5 65.5,11.9 83.1,83.1c-0.8,4.9 0.2,4.7 1,7.6c0.3,0.9 0.6,1.8 0.9,2.7c1.1,48.9 0.6,380.9 0.1,394.9c-0.4,1.3 -0.7,2.6 -1.1,4c-1.1,4 -1.2,3.8 -1.2,7.9c-0.4,1.8 -0.9,3.5 -1.3,5.3c-0.9,2.4 -1.1,2.3 -1.1,4.8c-0.3,0.6 -8.1,24 -26.1,42.8c-18.3,19.1 -20.7,15.5 -44.1,27.4c-2.8,-0 -2.6,0.5 -5,1.5l-5.1,0.9c-0.7,0 -378.6,-0.3 -405.5,0.1c-1.2,0 -10.9,-0.1 -11.8,-0.1c-1.8,-0.4 -3.5,-0.9 -5.3,-1.3c-2.4,-0.9 -2.2,-1.2 -4.8,-1.1c-29.5,-11.2 -42.6,-25 -53.7,-38.8c-0.5,-0.8 -1,-1.6 -1.6,-2.4c-0.4,-0.5 -0.7,-1 -1.1,-1.5c-0.2,-0.2 0.1,-0.2 -2,-3.4c-5.7,-7.5 -6.3,-10.9 -6.4,-12c-0.8,-1.6 -0.5,-1.6 -2,-2.8c-0.4,-0.9 -0.7,-1.8 -1.1,-2.7c0.5,-2.9 0.1,-2.8 -1.7,-5l-0.2,-1.2c-0,-0.5 -0.4,-6.5 -0.4,-6.5c-0.2,-0.4 -1.1,0.4 -1.3,0l-0.9,-1.4l-0.3,-2.5c-0.2,-31.9 0.8,-31.7 0,-398.9c0,-1.5 -0.1,-1.3 -0,-18.4c0.4,-1.3 0.8,-2.7 1.2,-4c0.5,-2.2 1.1,-4.3 1.6,-6.5c0.4,-0.9 0.8,-1.8 1.2,-2.7c0.8,-1.7 1,-1.5 0.9,-3.5c2.9,-6.9 21.2,-50.2 69,-64c3,-0.9 6.1,-1.6 9.2,-2.4c2.9,0.2 3.1,0.8 5.1,-1.4Z" style="fill:#001d35;fill-opacity:1;"/><path d="M177.6,138.8c40.1,-0.1 58.4,-0.8 83.6,12.5c42.1,22.3 47,52.1 46.6,86.2c-1.4,101.1 -132,89.2 -132.6,89.5c-2.6,1.1 -0.7,60.4 -1.3,79.3c-0.2,5.9 -11.5,4.6 -42.1,4.5c-10,-0 -14.8,4.1 -14.9,-5.9c-1.7,-96.3 -0.2,-240.6 0,-261.6c0.1,-5 2.9,-4.5 60.7,-4.6Z" style="fill:#30a7fd;"/><path d="M428.6,248.6c-10.6,-0.4 -10.4,-2.2 -20.9,-2.3c-1.2,-0 -1,0.3 -14.5,2.5c-3.3,0.5 -9.1,7.4 -9.4,9.5c-2.5,20.1 48,26 72.6,47c21.5,18.4 15.9,28.3 20.8,35.5c1.5,2.2 1.5,32.6 -16,50.9c-36.4,38.2 -114.5,22.1 -127.9,10.5c-2.8,-2.5 -2.8,-3.1 -1.9,-47c0.2,-8.8 8.1,-1.1 10.8,0.4c20.7,11 66.7,19.1 77.6,5.1c3.6,-4.6 2.8,-5.1 0.8,-10.5c-4.5,-12.3 -29.6,-17.3 -46.9,-25.9c-56.4,-28.1 -49.8,-78.2 -24.9,-102.5c11.6,-11.3 17.7,-11.7 19.6,-13.2c14.6,-11.3 76.1,-6.7 83.9,-3.9c9.1,3.2 10.9,4.8 11.6,5.5c2.7,2.5 1,3 0.7,45.8c-0,0.4 -0,4.8 -4.7,2.9c-0.6,-0.2 -6.6,-2.7 -7.4,-3.4c-2,-1.7 -19.7,-6.2 -23.9,-6.8Z" style="fill:#30a7fd;"/><path d="M252.7,224.4c0.1,5.1 4.3,26.7 -16.4,41.8c-1.1,0.8 -7.5,3.1 -10.5,5.2c-2.2,1.6 -4,-1 -9.1,2.6c-0.6,0.4 -42.7,3.2 -42.8,-1.2c-0.5,-76.1 -1.4,-76.1 1,-82.3c0.8,-2.2 31.7,-5.1 50.9,2.6c2.1,0.8 18.3,7.4 21.8,17.1c1.7,4.8 3.5,4.1 4.9,14.1Z" style="fill:#001c34;"/><path d="M1.9,85.8c-0.1,17.1 0,16.9 0,18.4c-2,-5.8 -0.1,-5.9 -1.2,-11.8c0.1,-0.8 -0.1,-0.7 -0,-1.3c0,-0.3 0,-0.3 0.4,-3.8l0.7,-1.4Z" style="fill:#485062;fill-opacity:0.82;"/><path d="M495.4,587.1l1.2,0.6c-7.2,0.6 -7.1,0.7 -14.4,1c1.3,-0.1 1.2,-0.1 1.3,-0.1c5.8,-2.8 6,-1.4 11.8,-1.5Z" style="fill:#555c64;fill-opacity:0.56;"/><path d="M91.2,587.1c9.1,-1.4 9.5,1.1 10.5,1.5c-3.9,-0.3 -7.8,-0.6 -11.7,-0.8l1.2,-0.6Z" style="fill:#656c74;fill-opacity:0.57;"/><path d="M3.1,507.1c0.2,0.4 1.1,-0.4 1.3,-0c0,0 0.3,6 0.4,6.5l-0.7,-0.3c-0.3,-2.4 -0.8,-5.7 -0.9,-6.2Z" style="fill:#515364;fill-opacity:0.65;"/><path d="M586,495.2l0.1,1.3l-0.7,5.1l-0.6,1.5c0,-4.1 0.2,-3.9 1.2,-7.9Z" style="fill:#46495a;fill-opacity:0.67;"/><path d="M585,86.1c2.8,4.6 1.6,4.8 1.9,10.3c-0.3,-0.9 -0.6,-1.8 -0.9,-2.7c-0.4,-3.8 -0.2,-3.7 -1,-7.6Z" style="fill:#444952;fill-opacity:0.4;"/><path d="M585,86.1c0.7,3.9 0.6,3.8 1,7.6c-0.8,-2.9 -1.8,-2.7 -1,-7.6Z" style="fill:#464a5b;fill-opacity:0.65;"/><path d="M4.9,514.8c1.8,2.2 2.2,2.2 1.7,5c-1.2,-1.4 -1.7,-4.6 -1.7,-5Z" style="fill:#686c78;fill-opacity:0.52;"/><path d="M4.1,75.7l0.6,-0.3c-0.5,2.2 -1.1,4.3 -1.6,6.5c0.1,-0.5 0.1,-0.4 1,-6.1Z" style="fill:#464857;fill-opacity:0.6;"/><path d="M2.2,505.7l0.9,1.4c0.1,0.5 0.6,3.8 0.9,6.2c-2,-3.6 -1.5,-3.6 -1.9,-7.6Z" style="fill:#4d5058;fill-opacity:0.36;"/><path d="M4.1,75.7c-1,5.7 -1,5.6 -1,6.1c-0.4,-3.4 -0.7,-3.4 1,-6.1Z" style="fill:#4b4d53;fill-opacity:0.33;"/><path d="M587.1,491.3l-0.6,6.5l-0.4,-1.2l-0.1,-1.3c0.4,-1.3 0.7,-2.6 1.1,-4Z" style="fill:#484f58;fill-opacity:0.49;"/><path d="M1.1,87.2c-0.4,3.5 -0.4,3.5 -0.4,3.8c-0.1,0.7 0.1,0.5 0,1.3l-0.7,-1.2c0.1,-2.2 -0.3,-2.2 1.1,-3.9Z" style="fill:#606266;fill-opacity:0.3;"/><path d="M86.1,586.6c3.5,0.5 3.5,0.5 3.8,0.5c0.7,0.1 0.5,-0.1 1.3,0l-1.2,0.6c-2.2,-0.1 -2.2,0.3 -3.9,-1.1Z" style="fill:#5b5d62;fill-opacity:0.3;"/><path d="M495.4,587.1c0.7,-0.1 0.5,0.1 1.3,-0c0.3,-0 0.3,-0 3.8,-0.5c-1.7,1.5 -1.8,1 -3.9,1.1l-1.2,-0.6Z" style="fill:#58595f;fill-opacity:0.31;"/><path d="M586.1,496.6l0.4,1.2c-0.1,2.2 0.4,2.3 -1.1,3.9l0.7,-5.1Z" style="fill:#4c4e55;fill-opacity:0.31;"/><path d="M7.8,522.6c1.5,1.2 1.2,1.2 2,2.8c-0.7,-0.9 -1.3,-1.9 -2,-2.8Z" style="fill:#6c7179;fill-opacity:0.47;"/><path d="M90,1.4c-2,2.2 -2.2,1.6 -5.1,1.4c1.7,-0.5 3.4,-0.9 5.1,-1.4Z" style="fill:#383c4c;fill-opacity:0.56;"/><path d="M6.7,69.2c0.2,2 -0.1,1.8 -0.9,3.5c-0.3,-1.9 -0.5,-2 0.9,-3.5Z" style="fill:#4f5562;fill-opacity:0.53;"/><path d="M90,1.4c-1.7,0.5 -3.4,0.9 -5.1,1.4c2.4,-1.4 2.3,-1.3 5.1,-1.4Z" style="fill:#383b44;fill-opacity:0.33;"/><path d="M74.6,583.5c1.6,0.4 3.2,0.7 4.8,1.1c-2.7,0.5 -2.6,0.3 -4.8,-1.1Z" style="fill:#40444c;fill-opacity:0.34;"/><path d="M512,583.5c-2.3,1.5 -2.2,1.4 -5,1.5c0.9,-0.3 0.6,-0.4 1.5,-0.6c0.3,-0.1 0.3,-0.1 3.5,-0.9Z" style="fill:#363942;fill-opacity:0.33;"/><path d="M583.4,508.4c0.4,2.7 0.3,2.6 -1.1,4.8c0.4,-1.6 0.8,-3.2 1.1,-4.8Z" style="fill:#3c3e49;fill-opacity:0.35;"/><path d="M74.6,583.5c2.6,-0.1 2.4,0.2 4.8,1.1c-1.6,-0.4 -3.2,-0.7 -4.8,-1.1Z" style="fill:#3e4353;fill-opacity:0.57;"/><path d="M512,583.5c-3.3,0.8 -3.3,0.8 -3.5,0.9c-0.8,0.2 -0.6,0.4 -1.5,0.6c2.5,-1.1 2.2,-1.5 5,-1.5Z" style="fill:#323647;fill-opacity:0.57;"/><path d="M496.7,1.8l3.8,0.7l1.5,0.5c-1.8,-0.4 -3.5,-0.8 -5.3,-1.2Z" style="fill:#33384a;fill-opacity:0.58;"/><path d="M583.4,508.4c-0.4,1.6 -0.8,3.2 -1.1,4.8c-0,-2.5 0.2,-2.3 1.1,-4.8Z" style="fill:#383b4e;fill-opacity:0.57;"/><path d="M16.2,537.4c2.1,3.2 1.8,3.2 2,3.4c-1.9,-1.2 -2.3,-1.1 -2,-3.4Z" style="fill:#2e333f;fill-opacity:0.33;"/><path d="M496.7,1.8c2.2,-0.4 2.2,-0.7 3.8,0.7l-3.8,-0.7Z" style="fill:#3e424a;fill-opacity:0.31;"/><path d="M19.3,542.3c0.5,0.8 1,1.6 1.6,2.4c-0.5,-0.8 -1,-1.6 -1.6,-2.4Z" style="fill:#313143;fill-opacity:0.52;"/></g></svg>